<svg xmlns="http://www.w3.org/2000/svg" width="149.986" height="148" viewBox="0 0 149.986 148">
  <g id="日本地図のアイコン" transform="translate(3.992 1.5)">
    <path id="パス_279" data-name="パス 279" d="M187.105,434.376a6.716,6.716,0,0,1-6.714,6.714H166.27a6.713,6.713,0,0,1-6.714-6.714v-3.1a6.713,6.713,0,0,1,6.714-6.714h14.12a6.715,6.715,0,0,1,6.714,6.714Z" transform="translate(-111.202 -311.655)" fill="#67bcf7" stroke="#555454" stroke-width="3"/>
    <path id="パス_280" data-name="パス 280" d="M16.263,365.687h-1.18A6.718,6.718,0,0,0,8.368,372.4v9.274c0,3.709,1.729,6.719,4.691,6.719H13.8c3.2,0,2.464,3,2.464,6.715v4.349a6.719,6.719,0,0,0,6.715,6.714H33.241a6.716,6.716,0,0,0,6.714-6.714V372.4a6.715,6.715,0,0,0-6.714-6.714H16.263Z" transform="translate(-0.934 -264.501)" fill="#67bcf7" stroke="#555454" stroke-width="3"/>
    <path id="パス_281" data-name="パス 281" d="M165.255,161.438a6.709,6.709,0,0,0-6.559,5.292l-2.726,20.225c-.666,3.087-4.43,2.37-7.59,2.37H88.386c-4.493.916-4.687,4.033-4.687,7.738v5.084c0,3.705,1.4,5.131,4.687,5.691h19.328a6.719,6.719,0,0,1,6.714,6.719V217.9a6.718,6.718,0,0,0,6.714,6.714h52.22c3.152,0,5.427.272,6.543-2.745l10.728-52.284a6.715,6.715,0,0,0-6.563-8.146H165.255Z" transform="translate(-66.522 -116.768)" fill="#67bcf7" stroke="#555454" stroke-width="3"/>
    <path id="パス_282" data-name="パス 282" d="M376.823,28.031a6.605,6.605,0,0,1-6.6,5.075h-29.2a6.891,6.891,0,0,1-5.171-2.263,5.947,5.947,0,0,1-1.427-5.163l1.732-8.455L337.234,12l1.418-6.92A6.612,6.612,0,0,1,345.249,0h29.2a6.9,6.9,0,0,1,5.171,2.272,5.939,5.939,0,0,1,1.423,5.163Z" transform="translate(-236.689)" fill="#67bcf7" stroke="#555454" stroke-width="3"/>
    <path id="パス_283" data-name="パス 283" d="M352.17,12.64a2.819,2.819,0,0,1-2.771,2.288H337.134a2.821,2.821,0,0,1-2.771-3.349l.728-3.813.449-2.354.6-3.12A2.822,2.822,0,0,1,338.907,0h12.266a2.824,2.824,0,0,1,2.77,3.353Z" transform="translate(-248.82 22.546)" fill="#67bcf7" stroke="#555454" stroke-width="3"/>
    <path id="パス_284" data-name="パス 284" d="M352.509,13.195a2.891,2.891,0,0,1-2.824,2.389h-12.5a2.835,2.835,0,0,1-2.213-1.065,3,3,0,0,1-.611-2.43l.741-3.98.458-2.458.663-3.4A2.713,2.713,0,0,1,338.994,0h12.5a2.839,2.839,0,0,1,2.213,1.069,2.993,2.993,0,0,1,.609,2.43Z" transform="translate(-235.614 16.148)" fill="#67bcf7"/>
    <path id="パス_285" data-name="パス 285" d="M16.6,6.915c0,2.614-1.813,4.731-4.046,4.731H4.046C1.811,11.646,0,9.529,0,6.915V4.731C0,2.117,1.811,0,4.046,0h8.509C14.787,0,16.6,2.117,16.6,4.731Z" transform="translate(9.155 128.399) rotate(90)" fill="#67bcf7" stroke="#555454" stroke-width="3"/>
  </g>
</svg>
