<svg xmlns="http://www.w3.org/2000/svg" width="143.759" height="150.346" viewBox="0 0 143.759 150.346">
  <g id="グループ_434" data-name="グループ 434" transform="translate(-734.607 -544.607)">
    <g id="積み重ねた本のアイコン素材" transform="translate(797.074 582.074) rotate(22)">
      <path id="パス_278" data-name="パス 278" d="M85.142,48.2a9.041,9.041,0,0,0-1.308-2.582c-.091-.133-.178-.245-.279-.368a5.9,5.9,0,0,0-.616-.825L81.555,43.2l-6.287-5.527L71.884,34.7l6.454-5.72a2.347,2.347,0,0,0-3.107-3.52l-6.9,6.112-19.5,17.258a6.7,6.7,0,0,1-5.809,1.517L31.869,47.884,18.407,44.913,8.971,42.824l-1.353-.3a4.22,4.22,0,0,1-1.138-.582,4.2,4.2,0,0,1-1.713-3.363,4.129,4.129,0,0,1,.807-2.444,3.984,3.984,0,0,1,1.473-1.253,4.047,4.047,0,0,1,1.877-.46c.112,0,.225.013.334.013l9.731,2.1,22.566,4.882a8.945,8.945,0,0,0,7.851-2.044L63.278,27.153,77.445,14.676a4.515,4.515,0,0,0-2.034-7.788l-1.765-.379L60.777,3.726,44.48.209a8.937,8.937,0,0,0-7.851,2.044L14.856,21.378,8.311,27.13,2.616,32.135A5.7,5.7,0,0,0,2,32.96a4.254,4.254,0,0,0-.279.368A8.885,8.885,0,0,0,1.7,43.806,8.774,8.774,0,0,0,3.676,45.8a8.549,8.549,0,0,0,2.58,1.3l.1.034L16.287,49.3l1.922,1.71-.282.245-6.543,5.755-5.7,5a6.315,6.315,0,0,0-.616.828c-.1.123-.188.235-.277.368A8.924,8.924,0,0,0,6.747,75.677a8.611,8.611,0,0,0,2.58,1.3l.1.034,9.932,2.177,9.407,2.055L45.1,84.813a10.964,10.964,0,0,0,2.4.258A11.36,11.36,0,0,0,55,82.244l.559-.491L74.955,64.583l6.457-5.72a2.268,2.268,0,0,0,.624-.893,8.683,8.683,0,0,0,1.822-1.877,8.877,8.877,0,0,0,1.284-7.9ZM71.4,61.456,51.9,78.714a6.631,6.631,0,0,1-4.4,1.666,6.8,6.8,0,0,1-1.41-.146l-11.146-2.47L21.483,74.792l-9.441-2.086-1.353-.3a4.183,4.183,0,0,1-1.138-.582,4.182,4.182,0,0,1-1.71-3.36,4.1,4.1,0,0,1,.807-2.446,3.957,3.957,0,0,1,1.473-1.251A4,4,0,0,1,12,64.3c.112,0,.222.011.334.011l9.731,2.1L44.626,71.3a8.934,8.934,0,0,0,7.854-2.044l6.031-5.305L71.9,61.009Zm8.924-8.7a4.074,4.074,0,0,1-1.253,1.473,4.253,4.253,0,0,1-1.138.582l-12.1,2.679-23.3,5.151a6.719,6.719,0,0,1-1.407.144,6.649,6.649,0,0,1-4.4-1.663L25.692,51.359l16.331,3.574a10.971,10.971,0,0,0,2.4.256,11.355,11.355,0,0,0,7.509-2.828l.559-.491L76.3,46.722c.112,0,.214-.011.326-.011a4.021,4.021,0,0,1,1.227.191,3.478,3.478,0,0,1,.658.266,4.15,4.15,0,0,1,1.478,1.253,4.367,4.367,0,0,1,.6,1.2,4.075,4.075,0,0,1,.193,1.24A4.161,4.161,0,0,1,80.328,52.756Z" transform="translate(0 0)" fill="#67bcf7" stroke="#555454" stroke-width="3"/>
    </g>
    <g id="試験管のアイコン6" transform="translate(736 550.674) rotate(-7)">
      <path id="パス_289" data-name="パス 289" d="M10.775,5.391a5.387,5.387,0,1,0-5.4,5.383A5.38,5.38,0,0,0,10.775,5.391Z" transform="translate(11.503 52.774)" fill="#67bcf7" stroke="#555454" stroke-width="1.5"/>
      <path id="パス_291" data-name="パス 291" d="M3.377,0A3.368,3.368,0,1,0,6.735,3.371,3.369,3.369,0,0,0,3.377,0Z" transform="translate(19.539 66.352)" fill="#67bcf7" stroke="#555454" stroke-width="1.5"/>
      <path id="パス_292" data-name="パス 292" d="M32.2,0H6.159A6.157,6.157,0,0,0,2.891,11.377V75.151a16.286,16.286,0,0,0,32.572,0V11.377A6.157,6.157,0,0,0,32.2,0ZM30.412,75.151a11.235,11.235,0,0,1-22.469,0V45.231l.68-.261a11.882,11.882,0,0,1,4.37-.805,24.943,24.943,0,0,1,5.78.892,23.4,23.4,0,0,0,5.395.845,10.488,10.488,0,0,0,4.711-1.1l1.534-.75v31.1Z" transform="translate(0 0)" fill="#67bcf7" stroke="#555454" stroke-width="2.5"/>
    </g>
  </g>
</svg>
