<svg xmlns="http://www.w3.org/2000/svg" width="125.185" height="120.711" viewBox="0 0 125.185 120.711">
  <g id="お手洗いのマーク4" transform="translate(-6.043 -17.55)">
    <path id="パス_268" data-name="パス 268" d="M338.254,39.647A17.944,17.944,0,1,0,320.31,21.7,17.943,17.943,0,0,0,338.254,39.647Z" transform="translate(-236.317 15.291)" fill="#67bcf7" stroke="#555454" stroke-width="3"/>
    <path id="パス_269" data-name="パス 269" d="M60.26,39.647A17.944,17.944,0,1,0,42.315,21.7,17.944,17.944,0,0,0,60.26,39.647Z" transform="translate(-25.115 15.291)" fill="#67bcf7" stroke="#555454" stroke-width="3"/>
    <path id="パス_287" data-name="パス 287" d="M44.4,0H10.778A11.305,11.305,0,0,0,1.351,5.067c-2.093,3.163-1.484,7.015,0,10.506L24.743,71.741c.443,1.042.948,2.439,2.826,2.439s2.589-1.4,3.032-2.439L53.823,15.574c1.484-3.491,2.093-7.343,0-10.506A11.306,11.306,0,0,0,44.4,0Z" transform="translate(129.713 136.762) rotate(180)" fill="#67bcf7" stroke="#555454" stroke-width="3"/>
    <path id="パス_288" data-name="パス 288" d="M44.952,194.619H11.335a11.305,11.305,0,0,0-9.427,5.067c-2.093,3.163-1.484,7.015,0,10.506L25.3,266.36c.443,1.042.948,2.439,2.826,2.439s2.589-1.4,3.032-2.439l23.222-56.168c1.484-3.491,2.093-7.343,0-10.506A11.306,11.306,0,0,0,44.952,194.619Z" transform="translate(7.002 -132.038)" fill="#67bcf7" stroke="#555454" stroke-width="3"/>
  </g>
</svg>
