<svg xmlns="http://www.w3.org/2000/svg" width="161.757" height="123.745" viewBox="0 0 161.757 123.745">
  <g id="プログラムアイコン" transform="translate(3 -69.491)">
    <g id="パス_272" data-name="パス 272" transform="translate(0 0)" fill="#67bcf7" stroke-linejoin="round">
      <path d="M 150.6313171386719 191.73583984375 L 5.125689506530762 191.73583984375 C 1.472272753715515 191.73583984375 -1.499998092651367 188.6380920410156 -1.499998092651367 184.8304138183594 L -1.499998092651367 176.6904449462891 C -1.499998092651367 175.7551879882812 -1.194143891334534 174.8345794677734 -0.6387689709663391 174.0981750488281 L 12.92912673950195 156.1080932617188 L 12.92912673950195 79.26660919189453 C 12.92912673950195 74.70341491699219 16.48358535766602 70.99100494384766 20.85258483886719 70.99100494384766 L 134.9044342041016 70.99100494384766 C 139.2742767333984 70.99100494384766 142.8293914794922 74.70341491699219 142.8293914794922 79.26660919189453 L 142.8293914794922 156.1273193359375 L 156.9751739501953 175.815185546875 L 157.2570037841797 176.2074432373047 L 157.2570037841797 176.6904449462891 L 157.2570037841797 184.8304138183594 C 157.2570037841797 188.6380920410156 154.2847290039062 191.73583984375 150.6313171386719 191.73583984375 Z" stroke="none"/>
      <path d="M 150.6313323974609 190.2358551025391 C 153.4635162353516 190.2358551025391 155.7570037841797 187.8175659179688 155.7570037841797 184.8304138183594 L 155.7570037841797 176.6904449462891 L 141.3293914794922 156.6103057861328 L 141.3293914794922 79.26661682128906 C 141.3293914794922 75.5252685546875 138.4521484375 72.49098205566406 134.9044342041016 72.49098205566406 L 20.85258865356445 72.49098205566406 C 17.30484962463379 72.49098205566406 14.42913246154785 75.5252685546875 14.42913246154785 79.26661682128906 L 14.42913246154785 156.6103057861328 L 0.5588496923446655 175.0013275146484 C 0.197132334113121 175.48095703125 1.89208981282718e-06 176.0744476318359 1.89208981282718e-06 176.6904449462891 L 1.89208981282718e-06 184.8304138183594 C 1.89208981282718e-06 187.8175659179688 2.294371366500854 190.2358551025391 5.125697612762451 190.2358551025391 L 150.6313323974609 190.2358551025391 M 150.6313323974609 193.2358551025391 L 5.125697612762451 193.2358551025391 C 2.924697637557983 193.2358551025391 0.8644149303436279 192.3415679931641 -0.6756285429000854 190.7177429199219 C -2.174519777297974 189.1373138427734 -2.999998092651367 187.0464782714844 -2.999998092651367 184.8304138183594 L -2.999998092651367 176.6904449462891 C -2.999998092651367 175.4313354492188 -2.586737155914307 174.1899566650391 -1.836367726325989 173.1949615478516 L 11.42913246154785 155.6058502197266 L 11.42913246154785 79.26661682128906 C 11.42913246154785 76.68580627441406 12.38945865631104 74.25144195556641 14.13321971893311 72.41191864013672 C 15.91874122619629 70.52832794189453 18.30506706237793 69.49098205566406 20.85258865356445 69.49098205566406 L 134.9044342041016 69.49098205566406 C 140.1013641357422 69.49098205566406 144.3293914794922 73.87631225585938 144.3293914794922 79.26661682128906 L 144.3293914794922 155.6443176269531 L 158.1933288574219 174.93994140625 C 158.5598449707031 175.4500274658203 158.7570037841797 176.0623168945312 158.7570037841797 176.6904449462891 L 158.7570037841797 184.8304138183594 C 158.7570037841797 187.0465240478516 157.9317016601562 189.1372833251953 156.4330902099609 190.7176208496094 C 154.8931579589844 192.3415222167969 152.8327178955078 193.2358551025391 150.6313323974609 193.2358551025391 Z" stroke="none" fill="#555454"/>
    </g>
    <path id="パス_286" data-name="パス 286" d="M0,0" transform="translate(40.265 115.026) rotate(135)" fill="#67bcf7" stroke="#158bde" stroke-linecap="round" stroke-width="3"/>
    <g id="長方形_227" data-name="長方形 227" transform="translate(21.484 83.233)" fill="#fcfacb" stroke="#555454" stroke-width="3">
      <rect width="111.751" height="55.858" rx="6" stroke="none"/>
      <rect x="1.5" y="1.5" width="108.751" height="52.858" rx="4.5" fill="none"/>
    </g>
    <g id="グループ_303" data-name="グループ 303" transform="translate(42.593 95.174)">
      <g id="長方形_218" data-name="長方形 218" transform="matrix(0.848, 0.53, -0.53, 0.848, 40.584, 0)" fill="#67bcf7" stroke="#555454" stroke-width="3">
        <rect width="8.227" height="32.908" rx="4.114" stroke="none"/>
        <rect x="1.5" y="1.5" width="5.227" height="29.908" rx="2.614" fill="none"/>
      </g>
      <g id="長方形_219" data-name="長方形 219" transform="matrix(-0.485, 0.875, -0.875, -0.485, 24.439, 22.665)" fill="#67bcf7" stroke="#555454" stroke-width="3">
        <rect width="8.227" height="22.853" rx="4.114" stroke="none"/>
        <rect x="1.5" y="1.5" width="5.227" height="19.853" rx="2.614" fill="none"/>
      </g>
      <g id="長方形_220" data-name="長方形 220" transform="matrix(0.616, 0.788, -0.788, 0.616, 18.009, 2.219)" fill="#67bcf7" stroke="#555454" stroke-width="3">
        <rect width="8.227" height="22.853" rx="4.114" stroke="none"/>
        <rect x="1.5" y="1.5" width="5.227" height="19.853" rx="2.614" fill="none"/>
      </g>
      <rect id="長方形_221" data-name="長方形 221" width="1.828" height="5.485" transform="matrix(-0.485, 0.875, -0.875, -0.485, 11.866, 18.777)" fill="#67bcf7"/>
      <g id="長方形_223" data-name="長方形 223" transform="translate(47.112 9.493) rotate(-57)" fill="#67bcf7" stroke="#555454" stroke-width="3">
        <rect width="8.227" height="22.853" rx="4.114" stroke="none"/>
        <rect x="1.5" y="1.5" width="5.227" height="19.853" rx="2.614" fill="none"/>
      </g>
      <g id="長方形_224" data-name="長方形 224" transform="matrix(-0.559, -0.829, 0.829, -0.559, 52.101, 30.337)" fill="#67bcf7" stroke="#555454" stroke-width="3">
        <rect width="8.227" height="22.853" rx="4.114" stroke="none"/>
        <rect x="1.5" y="1.5" width="5.227" height="19.853" rx="2.614" fill="none"/>
      </g>
      <rect id="長方形_226" data-name="長方形 226" width="1.371" height="5.485" transform="translate(59.443 14.377) rotate(-57)" fill="#67bcf7"/>
      <rect id="長方形_229" data-name="長方形 229" width="1.417" height="5.485" transform="translate(60.855 13.611) rotate(-57)" fill="#67bcf7"/>
      <rect id="長方形_230" data-name="長方形 230" width="1.371" height="5.485" transform="translate(60.357 14.377) rotate(-57)" fill="#67bcf7"/>
      <rect id="長方形_231" data-name="長方形 231" width="1.463" height="5.485" transform="matrix(-0.485, 0.875, -0.875, -0.485, 10.952, 19.691)" fill="#67bcf7"/>
    </g>
    <g id="長方形_228" data-name="長方形 228" transform="translate(56.983 178.338)" fill="#67bcf7" stroke="#555454" stroke-width="3">
      <rect width="45.116" height="8.593" rx="4.297" stroke="none"/>
      <rect x="1.5" y="1.5" width="42.116" height="5.593" rx="2.797" fill="none"/>
    </g>
  </g>
</svg>
